<svg width="18" height="31" viewBox="0 0 18 31" fill="none" xmlns="http://www.w3.org/2000/svg">
<path d="M1.57846 1.5787C1.16837 1.98892 0.937988 2.54522 0.937988 3.12526C0.937988 3.70531 1.16837 4.26161 1.57846 4.67183L12.4066 15.5L1.57846 26.3281C1.17999 26.7406 0.9595 27.2932 0.964484 27.8668C0.969468 28.4403 1.19953 28.989 1.60511 29.3946C2.01069 29.8001 2.55934 30.0302 3.13289 30.0352C3.70645 30.0402 4.25902 29.8197 4.67158 29.4212L17.0463 17.0465C17.4564 16.6363 17.6867 16.08 17.6867 15.5C17.6867 14.9199 17.4564 14.3636 17.0463 13.9534L4.67158 1.5787C4.26137 1.16861 3.70507 0.938232 3.12502 0.938232C2.54497 0.938232 1.98868 1.16861 1.57846 1.5787V1.5787Z" fill="white"/>
</svg>
