<svg width="46" height="52" viewBox="0 0 46 52" fill="none" xmlns="http://www.w3.org/2000/svg">
<path d="M40.8889 0H7.66667C4.58467 0 0 2.0774 0 7.8V44.2C0 49.9226 4.58467 52 7.66667 52H46V46.8H7.69733C6.51667 46.7688 5.11111 46.293 5.11111 44.2C5.11111 43.9374 5.13411 43.7034 5.17244 43.4902C5.45867 41.9952 6.66233 41.626 7.69478 41.6H43.4444C43.4904 41.6 43.5237 41.5766 43.5697 41.574H46V5.2C46 2.3322 43.7077 0 40.8889 0ZM40.8889 36.4H5.11111V7.8C5.11111 5.7044 6.51667 5.2312 7.66667 5.2H25.5556V23.4L30.6667 20.8L35.7778 23.4V5.2H40.8889V36.4Z" fill="#FCFAFA"/>
</svg>
