<svg width="49" height="53" viewBox="0 0 49 53" fill="none" xmlns="http://www.w3.org/2000/svg">
<path d="M3.76923 49.2143H12.25V40.6964H3.76923V49.2143ZM14.1346 49.2143H23.5577V40.6964H14.1346V49.2143ZM3.76923 38.8036H12.25V29.3393H3.76923V38.8036ZM14.1346 38.8036H23.5577V29.3393H14.1346V38.8036ZM3.76923 27.4464H12.25V18.9286H3.76923V27.4464ZM25.4423 49.2143H34.8654V40.6964H25.4423V49.2143ZM14.1346 27.4464H23.5577V18.9286H14.1346V27.4464ZM36.75 49.2143H45.2308V40.6964H36.75V49.2143ZM25.4423 38.8036H34.8654V29.3393H25.4423V38.8036ZM15.0769 13.25V4.73214C15.0769 4.47582 14.9837 4.254 14.7972 4.06669C14.6107 3.87937 14.3898 3.78571 14.1346 3.78571H12.25C11.9948 3.78571 11.7739 3.87937 11.5874 4.06669C11.4009 4.254 11.3077 4.47582 11.3077 4.73214V13.25C11.3077 13.5063 11.4009 13.7281 11.5874 13.9155C11.7739 14.1028 11.9948 14.1964 12.25 14.1964H14.1346C14.3898 14.1964 14.6107 14.1028 14.7972 13.9155C14.9837 13.7281 15.0769 13.5063 15.0769 13.25ZM36.75 38.8036H45.2308V29.3393H36.75V38.8036ZM25.4423 27.4464H34.8654V18.9286H25.4423V27.4464ZM36.75 27.4464H45.2308V18.9286H36.75V27.4464ZM37.6923 13.25V4.73214C37.6923 4.47582 37.5991 4.254 37.4126 4.06669C37.2261 3.87937 37.0052 3.78571 36.75 3.78571H34.8654C34.6102 3.78571 34.3893 3.87937 34.2028 4.06669C34.0163 4.254 33.9231 4.47582 33.9231 4.73214V13.25C33.9231 13.5063 34.0163 13.7281 34.2028 13.9155C34.3893 14.1028 34.6102 14.1964 34.8654 14.1964H36.75C37.0052 14.1964 37.2261 14.1028 37.4126 13.9155C37.5991 13.7281 37.6923 13.5063 37.6923 13.25ZM49 11.3571V49.2143C49 50.2396 48.627 51.1269 47.881 51.8761C47.135 52.6254 46.2516 53 45.2308 53H3.76923C2.7484 53 1.86498 52.6254 1.11899 51.8761C0.372997 51.1269 0 50.2396 0 49.2143V11.3571C0 10.3318 0.372997 9.44457 1.11899 8.69531C1.86498 7.94606 2.7484 7.57143 3.76923 7.57143H7.53846V4.73214C7.53846 3.4308 7.9998 2.31678 8.92248 1.39007C9.84515 0.463356 10.9543 0 12.25 0H14.1346C15.4303 0 16.5395 0.463356 17.4621 1.39007C18.3848 2.31678 18.8462 3.4308 18.8462 4.73214V7.57143H30.1538V4.73214C30.1538 3.4308 30.6152 2.31678 31.5379 1.39007C32.4605 0.463356 33.5697 0 34.8654 0H36.75C38.0457 0 39.1548 0.463356 40.0775 1.39007C41.0002 2.31678 41.4615 3.4308 41.4615 4.73214V7.57143H45.2308C46.2516 7.57143 47.135 7.94606 47.881 8.69531C48.627 9.44457 49 10.3318 49 11.3571Z" fill="#FCFAFA"/>
</svg>
