<svg width="52" height="45" viewBox="0 0 52 45" fill="none" xmlns="http://www.w3.org/2000/svg">
<path d="M12.3263 1.50691C11.8418 1.02261 11.1849 0.750549 10.4998 0.750549C9.81484 0.750549 9.15787 1.02261 8.67343 1.50691L5.33318 4.84716L4.57626 4.09025C4.08904 3.61967 3.43648 3.35929 2.75914 3.36517C2.0818 3.37106 1.43387 3.64275 0.954896 4.12172C0.475925 4.60069 0.204238 5.24862 0.198352 5.92596C0.192466 6.6033 0.452852 7.25586 0.923427 7.74308L3.50676 10.3264C3.99121 10.8107 4.64817 11.0828 5.33318 11.0828C6.01818 11.0828 6.67515 10.8107 7.15959 10.3264L12.3263 5.15975C12.8106 4.6753 13.0826 4.01834 13.0826 3.33333C13.0826 2.64832 12.8106 1.99136 12.3263 1.50691ZM49.2576 36.8986H20.8332L20.5309 36.9167C19.8771 36.9944 19.2776 37.3189 18.855 37.8238C18.4324 38.3288 18.2186 38.976 18.2571 39.6333C18.2957 40.2906 18.5839 40.9084 19.0626 41.3604C19.5414 41.8124 20.1747 42.0645 20.8332 42.0652H49.2576L49.5598 42.0497C50.2184 41.9775 50.824 41.655 51.2515 41.1489C51.679 40.6428 51.8957 39.9918 51.8569 39.3305C51.8181 38.6692 51.5267 38.048 51.043 37.5954C50.5592 37.1428 49.9201 36.8933 49.2576 36.8986V36.8986ZM49.2576 21.4167H20.8332L20.5309 21.4347C19.8771 21.5125 19.2776 21.837 18.855 22.3419C18.4324 22.8469 18.2186 23.4941 18.2571 24.1514C18.2957 24.8087 18.5839 25.4265 19.0626 25.8785C19.5414 26.3305 20.1747 26.5826 20.8332 26.5833H49.2576L49.5598 26.5652C50.2137 26.4875 50.8131 26.163 51.2357 25.6581C51.6584 25.1531 51.8722 24.5059 51.8336 23.8486C51.795 23.1913 51.5069 22.5735 51.0281 22.1215C50.5493 21.6695 49.916 21.4174 49.2576 21.4167V21.4167ZM49.2576 5.91666H20.8332L20.5309 5.93475C19.8771 6.01251 19.2776 6.33701 18.855 6.84193C18.4324 7.34685 18.2186 7.99409 18.2571 8.65139C18.2957 9.3087 18.5839 9.92647 19.0626 10.3785C19.5414 10.8305 20.1747 11.0826 20.8332 11.0833H49.2576L49.5598 11.0652C50.2137 10.9875 50.8131 10.663 51.2357 10.1581C51.6584 9.65314 51.8722 9.00591 51.8336 8.3486C51.795 7.69129 51.5069 7.07353 51.0281 6.62152C50.5493 6.16952 49.916 5.91739 49.2576 5.91666V5.91666ZM12.3263 35.0902C11.8418 34.6059 11.1849 34.3339 10.4998 34.3339C9.81484 34.3339 9.15787 34.6059 8.67343 35.0902L5.33318 38.4305L4.57626 37.6736C4.08904 37.203 3.43648 36.9426 2.75914 36.9485C2.0818 36.9544 1.43387 37.2261 0.954896 37.705C0.475925 38.184 0.204238 38.832 0.198352 39.5093C0.192466 40.1866 0.452852 40.8392 0.923427 41.3264L3.50676 43.9097C3.99121 44.394 4.64817 44.6661 5.33318 44.6661C6.01818 44.6661 6.67515 44.394 7.15959 43.9097L12.3263 38.7431C12.8106 38.2586 13.0826 37.6017 13.0826 36.9167C13.0826 36.2317 12.8106 35.5747 12.3263 35.0902ZM8.67343 18.2986C9.16065 17.828 9.8132 17.5676 10.4905 17.5735C11.1679 17.5794 11.8158 17.8511 12.2948 18.33C12.7738 18.809 13.0454 19.457 13.0513 20.1343C13.0572 20.8116 12.7968 21.4642 12.3263 21.9514L7.15959 27.1181C6.67515 27.6024 6.01818 27.8744 5.33318 27.8744C4.64817 27.8744 3.99121 27.6024 3.50676 27.1181L0.923427 24.5347C0.676692 24.2964 0.479888 24.0114 0.344498 23.6962C0.209108 23.381 0.137844 23.042 0.134863 22.699C0.131882 22.356 0.197245 22.0158 0.327138 21.6984C0.45703 21.3809 0.64885 21.0925 0.891407 20.8499C1.13396 20.6073 1.4224 20.4155 1.73988 20.2856C2.05736 20.1557 2.39753 20.0904 2.74055 20.0933C3.08356 20.0963 3.42254 20.1676 3.73772 20.303C4.0529 20.4384 4.33796 20.6352 4.57626 20.8819L5.33318 21.6388L8.67343 18.2986Z" fill="#FCFAFA"/>
</svg>
