<svg width="84" height="84" viewBox="0 0 84 84" fill="none" xmlns="http://www.w3.org/2000/svg">
<rect width="84" height="84" rx="20" fill="white"/>
<path d="M12 36.7687V63.2298H12.17C12.9867 68.8263 17.8033 73.1527 23.6667 73.1527C27.58 73.1527 30.58 71.7734 32.5733 69.2695C33.8129 70.5045 35.2868 71.4837 36.9099 72.1504C38.533 72.8171 40.2731 73.1581 42.0297 73.1538C43.7864 73.1495 45.5247 72.7999 47.1445 72.1253C48.7642 71.4507 50.2332 70.4643 51.4667 69.2232C53.47 71.7436 56.48 73.1527 60.3333 73.1527C66.7667 73.1527 72 67.9597 72 61.5759V36.7687C72 20.3562 58.5433 7 42 7C25.4567 7 12 20.3562 12 36.7687ZM32 40.0763C28.3233 40.0763 25.3333 37.1094 25.3333 33.4611C25.3333 29.8127 28.3233 26.8458 32 26.8458C35.6767 26.8458 38.6667 29.8127 38.6667 33.4611C38.6667 37.1094 35.6767 40.0763 32 40.0763ZM52 26.8458C55.6767 26.8458 58.6667 29.8127 58.6667 33.4611C58.6667 37.1094 55.6767 40.0763 52 40.0763C48.3233 40.0763 45.3333 37.1094 45.3333 33.4611C45.3333 29.8127 48.3233 26.8458 52 26.8458Z" fill="#161717"/>
</svg>
